<svg xmlns="http://www.w3.org/2000/svg" width="142" height="13" fill="none"><path fill="#C3BAB1" d="M.724 2.263V1.09h8.182v1.172h-3.43V12H4.155V2.263H.725Zm11.308 4.815V12h-1.257V1.09h1.257v4.007h.106c.192-.423.48-.759.863-1.007.387-.252.902-.378 1.545-.378.557 0 1.046.112 1.465.335.419.22.744.56.974 1.018.235.454.352 1.033.352 1.736V12H16.08V6.886c0-.65-.169-1.152-.506-1.507-.334-.359-.797-.538-1.39-.538a2.32 2.32 0 0 0-1.108.26 1.907 1.907 0 0 0-.767.763c-.185.333-.277.738-.277 1.214Zm11.035 5.093c-.788 0-1.468-.175-2.04-.523a3.503 3.503 0 0 1-1.316-1.47c-.305-.632-.458-1.367-.458-2.205 0-.838.153-1.577.459-2.216.308-.643.738-1.143 1.288-1.502.555-.362 1.2-.543 1.94-.543.426 0 .846.07 1.262.213.415.142.794.373 1.134.692.341.316.613.735.816 1.257.202.522.303 1.165.303 1.929v.532h-6.307V7.25h5.029c0-.462-.093-.874-.277-1.236a2.088 2.088 0 0 0-.778-.858c-.334-.21-.728-.314-1.183-.314-.5 0-.933.124-1.3.373-.361.245-.64.564-.836.959a2.817 2.817 0 0 0-.293 1.267v.725c0 .618.107 1.141.32 1.571.217.426.517.751.9.975.384.22.83.33 1.337.33.33 0 .629-.046.895-.138.27-.096.503-.238.698-.426.195-.192.346-.43.453-.714l1.214.34a2.692 2.692 0 0 1-.644 1.087 3.14 3.14 0 0 1-1.119.725 4.15 4.15 0 0 1-1.497.256Zm9.69-.171V1.09h3.814c.76 0 1.386.132 1.88.395.493.26.861.61 1.102 1.05.242.436.363.921.363 1.454 0 .468-.084.855-.25 1.16-.164.306-.38.548-.65.725a2.957 2.957 0 0 1-.869.394v.107c.334.021.67.138 1.007.352.337.213.62.518.847.916.227.397.34.884.34 1.46a2.93 2.93 0 0 1-.372 1.475c-.249.437-.641.783-1.177 1.039-.537.255-1.234.383-2.094.383h-3.941Zm1.32-1.172h2.621c.863 0 1.476-.167 1.838-.5.366-.338.549-.746.549-1.226 0-.369-.094-.71-.283-1.022a2.042 2.042 0 0 0-.804-.757c-.348-.192-.76-.287-1.236-.287h-2.684v3.792Zm0-4.943h2.45c.399 0 .757-.078 1.077-.234.323-.157.579-.377.767-.66.192-.285.288-.619.288-1.002 0-.48-.167-.886-.501-1.22-.334-.338-.863-.506-1.587-.506h-2.493v3.622Zm11.589 6.286c-.739 0-1.387-.176-1.944-.528a3.583 3.583 0 0 1-1.3-1.475c-.31-.632-.463-1.371-.463-2.216 0-.853.154-1.597.463-2.232.312-.636.746-1.13 1.3-1.481.557-.352 1.205-.527 1.944-.527.739 0 1.385.175 1.939.527.557.352.99.845 1.3 1.48.312.636.468 1.38.468 2.233 0 .845-.156 1.584-.468 2.216a3.534 3.534 0 0 1-1.3 1.475c-.554.352-1.2.527-1.94.527Zm0-1.13c.56 0 1.023-.144 1.385-.431.362-.288.63-.666.804-1.135.174-.469.261-.976.261-1.523 0-.547-.087-1.057-.26-1.53a2.577 2.577 0 0 0-.805-1.144c-.362-.291-.824-.437-1.385-.437s-1.023.146-1.385.437c-.362.29-.63.673-.804 1.145a4.388 4.388 0 0 0-.261 1.529c0 .547.087 1.054.26 1.523.175.469.443.847.805 1.135.362.287.824.431 1.385.431Zm6.883-3.963V12h-1.257V3.818h1.215v1.279h.106c.192-.416.483-.75.874-1.002.39-.256.895-.383 1.513-.383.553 0 1.038.113 1.454.34.415.224.738.565.97 1.023.23.455.345 1.03.345 1.726V12h-1.257V6.886c0-.642-.167-1.143-.5-1.502-.334-.362-.792-.543-1.375-.543-.4 0-.76.087-1.076.26-.312.175-.559.429-.74.763-.181.333-.272.738-.272 1.214Zm12.674 1.577V3.818h1.257V12h-1.257v-1.385h-.085c-.192.415-.49.769-.895 1.06-.405.288-.916.431-1.534.431-.512 0-.966-.111-1.364-.335-.398-.227-.71-.568-.938-1.023-.227-.458-.34-1.035-.34-1.731V3.818h1.257v5.114c0 .596.167 1.072.5 1.427.338.355.767.533 1.29.533.312 0 .63-.08.953-.24.327-.16.6-.404.82-.735.224-.33.336-.75.336-1.262Zm9.355-3.004-1.13.32a2.097 2.097 0 0 0-.314-.55 1.525 1.525 0 0 0-.554-.447c-.234-.117-.534-.176-.9-.176-.5 0-.918.116-1.252.347-.33.227-.495.516-.495.868 0 .312.114.56.34.74.228.181.583.332 1.066.453l1.215.298c.731.178 1.276.45 1.635.815.359.362.538.83.538 1.401 0 .469-.135.888-.405 1.257-.266.37-.639.66-1.118.874-.48.213-1.037.32-1.673.32-.835 0-1.525-.182-2.072-.544-.547-.362-.893-.891-1.039-1.587l1.193-.299c.114.44.329.771.645.991.32.22.737.33 1.252.33.586 0 1.05-.124 1.395-.372.348-.252.522-.554.522-.906 0-.284-.1-.522-.298-.714-.199-.195-.504-.34-.916-.436l-1.364-.32c-.75-.178-1.3-.453-1.651-.826-.348-.376-.522-.847-.522-1.411 0-.462.13-.87.389-1.225.263-.356.62-.634 1.07-.837.455-.202.97-.303 1.545-.303.81 0 1.445.177 1.907.532.465.355.795.824.99 1.407Zm7.102-.64-1.737-3.92h.703l1.215 2.876 1.214-2.876h.703l-1.736 3.92h-.362Zm-1.865 0v-3.92h.682v3.92h-.682Zm3.41 0v-3.92h.681v3.92h-.682Zm-5.966 0v-3.58h.681v3.58h-.681Zm-1.194-3.324v-.596h3.069v.597h-3.069Zm14.07-.596h1.576l3.708 9.055h.127l3.708-9.055h1.577V12h-1.236V3.712h-.107L96.08 12h-1.193l-3.41-8.288h-.106V12h-1.236V1.09ZM103.309 12V3.818h1.257V12h-1.257Zm.639-9.545a.895.895 0 0 1-.634-.25.804.804 0 0 1-.261-.603c0-.234.087-.435.261-.602a.895.895 0 0 1 .634-.25c.245 0 .455.083.629.25a.798.798 0 0 1 .266.602.798.798 0 0 1-.266.602.877.877 0 0 1-.629.25Zm8.716 3.196-1.129.32a2.086 2.086 0 0 0-.315-.55 1.52 1.52 0 0 0-.554-.447c-.234-.117-.534-.176-.9-.176-.501 0-.918.116-1.252.347-.33.227-.495.516-.495.868 0 .312.114.56.341.74.227.181.582.332 1.065.453l1.215.298c.731.178 1.276.45 1.635.815.359.362.538.83.538 1.401 0 .469-.135.888-.405 1.257-.266.37-.639.66-1.118.874-.48.213-1.037.32-1.673.32-.835 0-1.525-.182-2.072-.544-.547-.362-.893-.891-1.039-1.587l1.193-.299c.114.44.329.771.645.991.319.22.737.33 1.252.33.586 0 1.051-.124 1.395-.372.348-.252.522-.554.522-.906a.95.95 0 0 0-.298-.714c-.199-.195-.504-.34-.916-.436l-1.364-.32c-.749-.178-1.3-.453-1.651-.826-.348-.376-.522-.847-.522-1.411 0-.462.129-.87.389-1.225a2.64 2.64 0 0 1 1.07-.837c.455-.202.97-.303 1.545-.303.81 0 1.445.177 1.907.532.465.355.795.824.991 1.407Zm7.837 0-1.13.32a2.082 2.082 0 0 0-.314-.55 1.52 1.52 0 0 0-.554-.447c-.234-.117-.534-.176-.9-.176-.501 0-.918.116-1.252.347-.33.227-.495.516-.495.868 0 .312.113.56.341.74.227.181.582.332 1.065.453l1.215.298c.731.178 1.276.45 1.635.815.359.362.538.83.538 1.401 0 .469-.135.888-.405 1.257-.266.37-.639.66-1.119.874-.479.213-1.037.32-1.672.32-.835 0-1.525-.182-2.072-.544-.547-.362-.893-.891-1.039-1.587l1.193-.299c.114.44.329.771.645.991.319.22.737.33 1.252.33.585 0 1.051-.124 1.395-.372.348-.252.522-.554.522-.906a.95.95 0 0 0-.298-.714c-.199-.195-.504-.34-.916-.436l-1.364-.32c-.749-.178-1.3-.453-1.651-.826-.348-.376-.522-.847-.522-1.411 0-.462.129-.87.389-1.225a2.64 2.64 0 0 1 1.07-.837c.455-.202.97-.303 1.545-.303.81 0 1.445.177 1.907.532.465.355.795.824.991 1.407ZM122.542 12V3.818h1.257V12h-1.257Zm.639-9.545a.895.895 0 0 1-.634-.25.804.804 0 0 1-.261-.603c0-.234.087-.435.261-.602a.895.895 0 0 1 .634-.25c.245 0 .455.083.629.25a.798.798 0 0 1 .266.602.798.798 0 0 1-.266.602.877.877 0 0 1-.629.25Zm6.245 9.716c-.739 0-1.387-.176-1.945-.528a3.578 3.578 0 0 1-1.299-1.475c-.309-.632-.464-1.371-.464-2.216 0-.853.155-1.597.464-2.232.312-.636.745-1.13 1.299-1.481.558-.352 1.206-.527 1.945-.527.738 0 1.385.175 1.939.527.557.352.99.845 1.299 1.48.313.636.469 1.38.469 2.233 0 .845-.156 1.584-.469 2.216a3.536 3.536 0 0 1-1.299 1.475c-.554.352-1.201.527-1.939.527Zm0-1.13c.561 0 1.022-.144 1.385-.431.362-.288.63-.666.804-1.135.174-.469.261-.976.261-1.523 0-.547-.087-1.057-.261-1.53a2.578 2.578 0 0 0-.804-1.144c-.363-.291-.824-.437-1.385-.437s-1.023.146-1.385.437a2.572 2.572 0 0 0-.805 1.145 4.388 4.388 0 0 0-.261 1.529c0 .547.087 1.054.261 1.523.174.469.442.847.805 1.135.362.287.824.431 1.385.431Zm6.883-3.963V12h-1.257V3.818h1.214v1.279h.107c.192-.416.483-.75.874-1.002.39-.256.894-.383 1.512-.383.554 0 1.039.113 1.455.34.415.224.738.565.969 1.023.231.455.346 1.03.346 1.726V12h-1.257V6.886c0-.642-.167-1.143-.501-1.502-.333-.362-.792-.543-1.374-.543-.401 0-.76.087-1.076.26a1.869 1.869 0 0 0-.74.763c-.181.333-.272.738-.272 1.214Z"/></svg>